<svg width="24" height="24" viewBox="0 0 24 24" fill="none" xmlns="http://www.w3.org/2000/svg">
<path d="M12 10.5C14.07 10.5 15.75 8.82 15.75 6.75C15.75 4.68 14.07 3 12 3C9.93 3 8.25 4.68 8.25 6.75C8.25 8.82 9.93 10.5 12 10.5ZM12 4.5C13.245 4.5 14.25 5.505 14.25 6.75C14.25 7.995 13.245 9 12 9C10.755 9 9.75 7.995 9.75 6.75C9.75 5.505 10.755 4.5 12 4.5Z" fill="#FFF0F0"/>
<path d="M14.565 11.25H9.435C6.705 11.25 4.5 13.605 4.5 16.485V20.25C4.5 20.67 4.83 21 5.25 21H18.75C19.17 21 19.5 20.67 19.5 20.25V16.485C19.5 13.605 17.295 11.25 14.565 11.25ZM18 19.5H6V16.485C6 14.43 7.545 12.75 9.435 12.75H14.58C16.47 12.75 18.015 14.43 18.015 16.485V19.5H18Z" fill="#FFF0F0"/>
</svg>
